HIERARCHY
ROOT hip
{
	OFFSET 0.000000 0.000000 0.000000 
	CHANNELS 6 Xposition Yposition Zposition Xrotation Zrotation Yrotation
	JOINT abdomen
	{
		OFFSET 0.000000 3.402643 0.000000 
		CHANNELS 3 Xrotation Zrotation Yrotation
		JOINT chest
		{
			OFFSET 0.000000 8.438565 -0.680529 
			CHANNELS 3 Xrotation Zrotation Yrotation
			JOINT neck
			{
				OFFSET 0.000000 10.207942 -0.272212 
				CHANNELS 3 Xrotation Zrotation Yrotation
				JOINT head
				{
					OFFSET 0.000000 3.130431 0.000000 
					CHANNELS 3 Xrotation Zrotation Yrotation
					End Site
					{
						OFFSET 0.000000 3.130435 0.000000 
					}
				}
			}
			JOINT lCollar
			{
				OFFSET 3.470700 6.669187 -0.816635 
				CHANNELS 3 Yrotation Zrotation Xrotation
				JOINT lShldr
				{
					OFFSET 3.198488 0.000000 0.000000 
					CHANNELS 3 Zrotation Yrotation Xrotation
					JOINT lForeArm
					{
						OFFSET 10.139888 0.000000 0.000000 
						CHANNELS 3 Yrotation Zrotation Xrotation
						JOINT lHand
						{
							OFFSET 8.370511 0.000000 0.000000 
							CHANNELS 3 Zrotation Yrotation Xrotation
							End Site
							{
								OFFSET 4.083176 0.000000 0.000000 
							}
						}
					}
				}
			}
			JOINT rCollar
			{
				OFFSET -3.470700 6.669187 -0.816635 
				CHANNELS 3 Yrotation Zrotation Xrotation
				JOINT rShldr
				{
					OFFSET -3.198488 0.000000 0.000000 
					CHANNELS 3 Zrotation Yrotation Xrotation
					JOINT rForeArm
					{
						OFFSET -10.139888 0.000000 0.000000 
						CHANNELS 3 Yrotation Zrotation Xrotation
						JOINT rHand
						{
							OFFSET -8.370511 0.000000 0.000000 
							CHANNELS 3 Zrotation Yrotation Xrotation
							End Site
							{
								OFFSET -4.083176 0.000000 0.000000 
							}
						}
					}
				}
			}
		}
	}
	JOINT lThigh
	{
		OFFSET 5.308129 -1.633274 1.361059 
		CHANNELS 3 Xrotation Zrotation Yrotation
		JOINT lShin
		{
			OFFSET -2.041588 -20.007561 0.000000 
			CHANNELS 3 Xrotation Zrotation Yrotation
			JOINT lFoot
			{
				OFFSET 0.000000 -19.190928 -1.224953 
				CHANNELS 3 Xrotation Yrotation Zrotation
				End Site
				{
					OFFSET 0.000000 -2.449906 4.627600 
				}
			}
		}
	}
	JOINT rThigh
	{
		OFFSET -5.308129 -1.633274 1.361059 
		CHANNELS 3 Xrotation Zrotation Yrotation
		JOINT rShin
		{
			OFFSET 2.041588 -20.007561 0.000000 
			CHANNELS 3 Xrotation Zrotation Yrotation
			JOINT rFoot
			{
				OFFSET 0.000000 -19.190928 -1.224953 
				CHANNELS 3 Xrotation Yrotation Zrotation
				End Site
				{
					OFFSET 0.000000 -2.449906 4.627600 
				}
			}
		}
	}
}
MOTION
Frames: 18
Frame Time: 0.011111
-77.104179 52.004082 -4.511052 -1.525645 9.684187 -90.251968 8.195932 -1.861254 -1.767303 -25.067204 1.532681 -0.506557 -8.805652 3.515096 -0.268483 16.242903 -7.807050 -0.731263 -10.187975 -12.782608 -2.553061 -67.768578 -7.373871 -1.165040 -55.007404 8.673742 10.229139 8.524705 12.647240 -68.724014 11.162106 9.669281 -2.390417 66.175842 2.417482 11.598067 51.022015 -7.937412 8.577655 -8.534408 -12.637552 26.878765 -12.840445 4.433651 -20.672194 27.539124 -5.467471 -4.550261 -26.847033 17.003536 4.959257 -14.749860 -6.024621 14.828503 27.544006 5.443851 4.525551 -28.795948 -7.047619 -1.637543 
-77.114090 52.006207 -4.565922 -2.009370 9.976472 -90.230080 7.752269 -2.581608 -1.775378 -24.871918 1.624746 -0.457198 -8.623948 3.550712 -0.350561 15.970599 -7.799992 -0.836649 -10.187975 -12.782608 -2.553061 -67.678040 -7.278477 -0.783259 -55.155518 8.696477 10.284435 8.524705 12.647240 -68.372444 11.162106 9.669281 -2.390417 66.346687 2.400199 11.572673 51.115734 -7.954215 8.609899 -8.534408 -12.637552 27.044777 -12.927071 3.994294 -20.875074 27.167280 -5.488173 -4.501363 -26.728300 17.061131 4.927972 -15.361507 -6.463636 14.907795 27.945431 5.424216 4.566591 -29.081423 -6.698641 -1.550998 
-77.121170 52.026382 -4.615128 -2.304503 10.044195 -90.232216 7.687721 -3.048897 -1.786900 -24.911121 1.752772 -0.435822 -8.554831 3.373730 -0.342610 15.913170 -7.472218 -0.829731 -10.187975 -12.782608 -2.553061 -67.562462 -7.158830 -0.360167 -55.239727 8.707920 10.318676 8.524705 12.647240 -67.991592 11.162106 9.669281 -2.390417 66.444321 2.249756 11.547917 51.241573 -7.983087 8.669862 -8.534408 -12.637552 27.044777 -12.863976 3.760424 -20.843302 27.006411 -5.497252 -4.479627 -26.702053 17.024750 4.911278 -15.628242 -6.747338 14.729673 28.095156 5.419815 4.588406 -28.922953 -6.488533 -1.413784 
-77.132851 52.022133 -4.652651 -2.334150 9.838752 -90.249001 7.942992 -3.133134 -1.659998 -24.930651 1.725998 -0.386089 -8.624057 3.152790 -0.369255 15.893999 -7.034194 -0.873643 -10.187975 -12.782608 -2.553061 -67.482208 -7.005772 -0.045543 -55.588520 8.760628 10.472558 8.524705 12.647240 -67.698624 11.162106 9.669281 -2.390417 66.598022 2.219336 11.358833 51.367626 -8.011014 8.720263 -8.534408 -12.637552 26.966656 -12.574537 3.818389 -20.615744 26.885340 -5.506512 -4.461424 -26.579052 16.870804 4.826664 -15.443836 -6.756968 14.312596 28.214933 5.414000 4.617776 -28.665279 -6.602436 -1.394779 
-77.142067 52.013641 -4.683096 -2.013371 9.616227 -90.167900 8.252213 -2.744592 -1.646888 -25.028313 1.695000 -0.406908 -8.544645 3.166539 -0.340457 15.630996 -7.185335 -0.809618 -10.187975 -12.782608 -2.553061 -67.618538 -6.791808 -0.019068 -56.021587 8.819952 10.651248 8.524705 12.647240 -67.493546 11.162106 9.669281 -2.390417 66.576019 2.075976 11.520721 51.607788 -8.056446 8.813138 -8.534408 -12.637552 26.995955 -12.383484 4.219182 -20.443453 26.885340 -5.506511 -4.461424 -26.471010 16.745773 4.720775 -15.070840 -6.395677 14.163831 28.216429 5.409080 4.597242 -28.561422 -6.836425 -1.470493 
-77.142769 52.022133 -4.741152 -1.898115 9.726205 -90.021339 8.134693 -2.655116 -1.694049 -24.881638 1.548205 -0.424091 -8.814630 3.011010 -0.269618 15.806494 -6.849040 -0.668391 -10.187975 -12.782608 -2.553061 -67.502861 -6.781283 -0.117465 -56.371655 8.871283 10.806028 8.524705 12.647240 -67.620499 11.162106 9.669281 -2.390417 66.648888 2.159426 11.873147 51.733883 -8.083430 8.864042 -8.534408 -12.637552 27.337748 -12.651430 4.433682 -20.209684 26.986488 -5.497152 -4.477851 -26.203207 16.621038 4.574918 -15.146059 -6.210820 14.283951 28.155916 5.413820 4.593082 -28.625107 -7.007404 -1.584707 
-77.135681 52.022488 -4.781156 -1.772115 9.884659 -89.878090 7.996861 -2.503026 -1.755952 -24.774103 1.449972 -0.445470 -9.059511 3.089395 -0.283686 16.039007 -6.733742 -0.654182 -10.187975 -12.782608 -2.553061 -67.563179 -6.553887 -0.319499 -57.113796 8.968318 11.121642 8.524705 12.647240 -67.727921 11.162106 9.669281 -2.390417 66.588890 2.267301 12.266660 51.766228 -8.094657 8.882150 -8.534408 -12.637552 27.650248 -12.968259 4.619378 -20.070717 27.067011 -5.494786 -4.474631 -25.980927 16.512508 4.459528 -15.267442 -6.073689 14.133052 28.105101 5.419862 4.589290 -28.580694 -6.935907 -1.530295 
-77.131439 52.016472 -4.814785 -1.674453 9.944691 -89.771080 7.957681 -2.435992 -1.739962 -24.715441 1.352893 -0.439110 -9.153997 3.454960 -0.412864 16.033472 -7.144275 -0.875047 -10.187975 -12.782608 -2.553061 -67.601631 -6.064744 -0.061896 -58.165611 9.095101 11.587394 8.524705 12.647240 -67.268936 11.162106 9.669281 -2.390417 66.663185 2.291384 12.122673 51.912697 -8.123004 8.944285 -8.534408 -12.637552 27.464699 -13.166497 4.765723 -19.965347 27.147675 -5.488115 -4.489890 -25.848919 16.449156 4.379478 -15.303493 -5.975749 13.918632 28.115402 5.419700 4.581340 -28.598621 -6.795519 -1.467777 
-77.128601 52.015053 -4.867886 -1.630198 9.945662 -89.694847 8.026934 -2.475477 -1.599856 -24.764252 1.256979 -0.396291 -9.448323 3.291955 -0.449428 16.527756 -6.799184 -0.968842 -10.187975 -12.782608 -2.553061 -67.475853 -5.725166 0.280792 -58.856186 9.165420 11.887535 8.524705 12.647240 -66.868546 11.162106 9.669281 -2.390417 66.816902 2.261019 11.806747 52.059361 -8.150304 8.996902 -8.534408 -12.637552 27.279156 -13.238304 4.872738 -19.704901 27.181385 -5.465632 -4.498161 -25.776773 16.204920 4.270904 -15.289711 -5.858860 13.977675 28.156912 5.404376 4.610331 -28.721701 -6.875390 -1.533933 
-77.141350 52.009392 -4.928773 -1.652868 9.956160 -89.648636 7.959229 -2.562612 -1.612531 -24.529827 1.268345 -0.391602 -9.409300 3.201978 -0.453861 16.286621 -6.585045 -0.937047 -10.187975 -12.782608 -2.553061 -67.366112 -5.735572 0.308692 -59.249889 9.203362 12.062993 8.524705 12.647240 -66.624405 11.162106 9.669281 -2.390417 66.713310 2.390404 12.056946 52.175697 -8.178864 9.056472 -8.534408 -12.637552 27.425640 -13.278008 4.960716 -19.473982 27.169477 -5.479712 -4.480985 -25.800982 15.851431 4.174694 -15.328076 -5.800349 13.942494 28.236481 5.404471 4.617331 -28.761530 -6.922749 -1.570347 
-77.154449 51.999126 -4.972670 -1.781507 9.927704 -89.618706 7.971045 -2.763229 -1.557107 -24.402836 1.202226 -0.356481 -9.237727 3.275862 -0.543095 15.889016 -6.640906 -1.079694 -10.187975 -12.782608 -2.553061 -67.158363 -5.579993 0.622933 -59.760803 9.249207 12.295352 8.524705 12.647240 -66.038460 11.162106 9.669281 -2.390417 66.692093 2.346595 12.362799 52.426910 -8.223530 9.152386 -8.534408 -12.637552 27.845560 -13.184680 4.892389 -19.335884 27.119520 -5.475130 -4.504717 -25.771975 15.649266 4.090020 -15.334989 -5.907392 13.774950 28.347471 5.395322 4.624821 -28.696325 -6.795426 -1.509801 
-77.151268 51.994522 -5.005593 -1.902741 9.879653 -89.594833 8.011888 -2.977050 -1.350460 -24.344229 1.108009 -0.282711 -9.154603 3.358269 -0.644791 15.727475 -6.703872 -1.243881 -10.187975 -12.782608 -2.553061 -66.871025 -5.430355 1.098789 -60.207954 9.283991 12.486337 8.524705 12.647240 -65.384171 11.162106 9.669281 -2.390417 66.737480 2.315474 12.368937 52.657619 -8.266029 9.247554 -8.534408 -12.637552 28.206888 -13.087300 4.814230 -19.334396 27.068274 -5.484510 -4.491761 -25.644474 15.613771 4.041596 -15.355218 -6.005329 13.713782 28.454746 5.409604 4.628028 -28.649887 -6.683930 -1.427417 
-77.144180 52.005497 -5.050905 -1.810747 9.929403 -89.515625 7.981826 -2.954999 -1.173546 -24.275856 1.032363 -0.229301 -9.069798 3.407025 -0.710632 15.551772 -6.640707 -1.349659 -10.187975 -12.782608 -2.553061 -66.633202 -5.388674 1.343864 -60.538536 9.310001 12.639130 8.524705 12.647240 -64.798233 11.162106 9.669281 -2.390417 66.711128 2.350221 12.292628 52.836750 -8.301508 9.319846 -8.534408 -12.637552 28.324078 -13.185240 4.970635 -19.301828 27.038147 -5.489133 -4.470744 -25.701000 15.415969 3.987131 -15.383896 -5.858732 13.671678 28.516184 5.395505 4.650317 -28.737686 -6.793246 -1.499545 
-77.145592 52.018597 -5.132679 -1.898729 10.038404 -89.441032 7.876993 -3.294992 -1.174896 -24.207500 1.131417 -0.202810 -9.178349 3.183746 -0.745397 15.707563 -6.132361 -1.404249 -10.187975 -12.782608 -2.553061 -66.336609 -5.346724 1.466004 -60.879677 9.333979 12.793457 8.524705 12.647240 -64.309944 11.162106 9.669281 -2.390417 66.670868 2.302788 12.365908 53.131184 -8.356571 9.445573 -8.534408 -12.637552 28.333841 -13.368731 4.999765 -19.168821 27.000406 -5.472382 -4.492685 -25.843225 14.944912 3.876879 -15.553357 -5.829561 13.811285 28.556488 5.394332 4.643726 -28.851065 -6.864062 -1.581843 
-77.119751 52.031696 -5.164539 -1.833276 9.912686 -89.342491 8.130557 -3.239466 -1.105765 -24.305164 1.034342 -0.181046 -9.171250 3.134321 -0.807042 15.675693 -5.929618 -1.516167 -10.187975 -12.782608 -2.553061 -66.013809 -5.230941 1.671565 -61.242004 9.356968 12.959785 8.524705 12.647240 -63.792370 11.162106 9.669281 -2.390417 66.508720 2.222233 12.812346 53.405319 -8.408570 9.560943 -8.534408 -12.637552 28.421732 -13.313733 5.068018 -19.480137 27.009922 -5.474846 -4.494102 -25.958010 15.001581 3.934941 -15.396756 -5.732073 13.660722 28.556488 5.394334 4.643726 -28.646696 -6.699080 -1.438231 
-77.107010 52.045143 -5.193922 -1.909904 9.963445 -89.251633 8.111968 -3.305386 -1.168401 -24.285627 1.014058 -0.199378 -9.004742 3.086806 -0.797836 15.331493 -5.896996 -1.479240 -10.187975 -12.782608 -2.553061 -65.842079 -5.092013 1.758702 -61.667194 9.376733 13.142262 8.524705 12.647240 -63.108776 11.162106 9.669281 -2.390417 66.196899 2.202796 13.466704 53.615780 -8.445184 9.647153 -8.534408 -12.637552 28.577984 -13.385387 4.999764 -19.649178 26.986565 -5.498466 -4.468405 -25.851347 15.218086 3.983422 -15.500737 -5.790419 13.662827 28.597075 5.389546 4.646111 -28.490675 -6.796608 -1.425800 
-77.099228 52.049389 -5.233570 -1.733896 9.944880 -89.110985 8.158980 -3.090415 -1.144905 -24.266090 0.965341 -0.196976 -8.866596 2.863940 -0.771228 15.059545 -5.601249 -1.427715 -10.187975 -12.782608 -2.553061 -65.762093 -4.988893 1.553684 -62.105400 9.401322 13.345486 8.524705 12.647240 -62.854870 11.162106 9.669281 -2.390417 65.920486 2.100766 13.944454 53.932159 -8.500900 9.774905 -8.534408 -12.637552 28.685402 -13.454084 5.292870 -19.205999 26.989494 -5.479212 -4.483607 -25.779325 14.663713 3.766913 -15.446316 -5.605095 13.404012 28.626726 5.384885 4.676746 -28.527040 -6.755532 -1.434647 
-77.116570 52.038063 -5.301184 -1.861193 10.073340 -89.076973 7.955749 -3.418416 -1.060836 -24.158661 1.055106 -0.159671 -8.936950 2.658611 -0.818841 15.134596 -5.348266 -1.551851 -10.187975 -12.782608 -2.553061 -65.607040 -4.922326 1.343765 -62.498398 9.414100 13.527371 8.524705 12.647240 -62.972057 11.162106 9.669281 -2.390417 65.687515 1.977261 14.428443 54.217117 -8.551451 9.902164 -8.534408 -12.637552 28.997906 -13.591821 5.273097 -18.954708 26.939312 -5.484440 -4.460954 -25.628515 14.292159 3.585177 -15.630486 -5.712475 13.133521 28.716492 5.385049 4.674930 -28.546177 -6.601790 -1.374283 
